<svg width="140" height="34" viewBox="0 0 140 34" fill="none" xmlns="http://www.w3.org/2000/svg">
<g clip-path="url(#clip0)">
<path fill-rule="evenodd" clip-rule="evenodd" d="M0 17.0505L27.5048 34C28.1139 29.901 24.2797 27.4817 24.2439 27.1269C24.2022 26.6734 27.2963 25.5425 27.5245 22.4389C27.9101 17.2583 20.7525 16.9288 20.507 20.8028C20.3761 22.8282 22.6504 22.8741 22.7211 21.37C22.8195 19.356 24.9248 19.7361 25.2513 22.0026C25.5813 24.2726 22.9133 25.2336 21.8468 25.2037C20.1862 25.1532 17.9768 23.8121 17.7764 21.8304C17.4997 19.1011 20.6101 18.7487 16.5976 19.0851C15.0216 19.216 13.8717 18.3812 13.1398 17.0379C14.0488 15.7886 15.0216 14.9206 16.5976 15.0538C20.6101 15.3925 17.4997 15.0366 17.7764 12.2809C17.9768 10.282 20.1862 8.92595 21.8468 8.87658C22.9133 8.84443 25.5813 9.81465 25.2513 12.1076C24.9248 14.3936 22.8195 14.7771 22.7211 12.746C22.6504 11.2258 20.3761 11.274 20.507 13.3189C20.7525 17.2273 27.9101 16.8966 27.5245 11.6667C27.2998 8.59642 24.3191 7.43676 24.245 6.96026C24.2068 6.70881 28.1011 4.05306 27.5048 -0.00346606" fill="#9B804D"/>
<path d="M137.204 21.9311C136.749 22.1562 136.067 22.3066 135.359 22.3066C133.566 22.3066 132.504 21.5557 132.504 19.8012C132.504 17.3464 134.297 16.7195 137.204 16.3682V21.9311ZM140.084 23.0334V14.6643C140.084 11.1818 137.861 10.0049 135.056 10.0049C132.908 10.0049 131.266 10.6066 130.381 11.0314L131.089 12.7858C131.922 12.3851 133.186 11.9591 134.5 11.9591C136.092 11.9591 137.204 12.4345 137.204 14.1889V14.9157C133.06 15.3164 129.598 16.344 129.598 19.9011C129.598 22.5075 131.442 24.0105 135.157 24.0105C137.28 24.0105 138.998 23.6098 140.084 23.0334ZM126.97 23.7602V14.1384C126.97 11.9591 125.63 10.0049 121.562 10.0049C119.262 10.0049 117.519 10.3804 116.23 10.982V23.7602H119.313V12.3093C119.894 12.0843 120.425 11.9339 121.436 11.9339C123.382 11.9339 123.887 13.0867 123.887 14.1889V23.7602H126.97ZM110.064 21.9311C109.61 22.1562 108.928 22.3066 108.22 22.3066C106.426 22.3066 105.365 21.5557 105.365 19.8012C105.365 17.3464 107.159 16.7195 110.064 16.3682V21.9311ZM112.946 23.0334V14.6643C112.946 11.1818 110.722 10.0049 107.917 10.0049C105.769 10.0049 104.127 10.6066 103.242 11.0314L103.95 12.7858C104.784 12.3851 106.047 11.9591 107.361 11.9591C108.953 11.9591 110.064 12.4345 110.064 14.1889V14.9157C105.921 15.3164 102.458 16.344 102.458 19.9011C102.458 22.5075 104.303 24.0105 108.019 24.0105C110.14 24.0105 111.859 23.6098 112.946 23.0334ZM100.538 23.635V21.7302C100.286 21.806 100.083 21.8553 99.8053 21.8553C98.7445 21.8553 98.3149 21.1538 98.3149 20.1009V12.2094H100.538V10.2552H98.3149V6.42145L95.2312 7.2734V10.2552H93.7154V12.2094H95.2312V20.2525C95.2312 22.1309 96.2931 23.9106 98.9715 23.9106C99.7045 23.9106 100.26 23.7602 100.538 23.635ZM91.8707 19.8759C91.8707 18.2983 91.265 16.9445 88.6109 15.8928C87.424 15.4163 86.5902 14.8652 86.5902 13.7629C86.5902 12.8111 87.2723 11.9844 88.5345 11.9844C89.4956 11.9844 90.3039 12.4104 90.708 12.7353L91.4665 10.9568C90.5818 10.3804 89.4458 10.0049 87.9289 10.0049C85.3257 10.0049 83.6084 11.7582 83.6084 13.9133C83.6084 15.3164 84.1387 16.7195 86.7164 17.6966C88.106 18.2225 88.7128 18.7736 88.7128 19.9264C88.7128 21.0286 87.8779 21.8312 86.6157 21.8312C85.5028 21.8312 84.5683 21.4558 84.0635 21.0539L83.254 23.0081C84.0635 23.5592 85.4276 23.9852 87.0198 23.9852C90.0005 23.9852 91.8707 22.0815 91.8707 19.8759ZM77.9226 21.9311C77.4675 22.1562 76.7854 22.3066 76.0779 22.3066C74.2842 22.3066 73.2223 21.5557 73.2223 19.8012C73.2223 17.3464 75.016 16.7195 77.9226 16.3682V21.9311ZM80.8025 23.0334V14.6643C80.8025 11.1818 78.5792 10.0049 75.7745 10.0049C73.6264 10.0049 71.9844 10.6066 71.0997 11.0314L71.8072 12.7858C72.641 12.3851 73.9043 11.9591 75.2187 11.9591C76.8098 11.9591 77.9226 12.4345 77.9226 14.1889V14.9157C73.7781 15.3164 70.3157 16.344 70.3157 19.9011C70.3157 22.5075 72.1604 24.0105 75.8753 24.0105C77.999 24.0105 79.7163 23.6098 80.8025 23.0334ZM62.0789 10.0302C58.6419 9.92915 56.9235 10.3046 55.5084 10.982V23.7602H58.591V12.3599C59.2997 11.9591 60.4357 11.9086 61.4721 12.26L62.0789 10.0302ZM52.1224 23.7602V10.2552H49.0398V23.7602H52.1224ZM52.2741 6.42145C52.2741 5.57065 51.5411 4.89322 50.5811 4.89322C49.6466 4.89322 48.8881 5.57065 48.8881 6.42145C48.8881 7.24814 49.6466 7.92557 50.5811 7.92557C51.5411 7.92557 52.2741 7.24814 52.2741 6.42145ZM42.7727 21.9311C42.3176 22.1562 41.6356 22.3066 40.928 22.3066C39.1343 22.3066 38.0724 21.5557 38.0724 19.8012C38.0724 17.3464 39.8661 16.7195 42.7727 16.3682V21.9311ZM45.6527 23.0334V14.6643C45.6527 11.1818 43.4305 10.0049 40.6246 10.0049C38.4765 10.0049 36.8345 10.6066 35.9498 11.0314L36.6573 12.7858C37.4911 12.3851 38.7556 11.9591 40.0688 11.9591C41.661 11.9591 42.7727 12.4345 42.7727 14.1889V14.9157C38.6282 15.3164 35.167 16.344 35.167 19.9011C35.167 22.5075 37.0117 24.0105 40.7265 24.0105C42.8491 24.0105 44.5665 23.6098 45.6527 23.0334Z" fill="#002A47"/>
</g>
<defs>
<clipPath id="clip0">
<rect width="140" height="34" fill="white"/>
</clipPath>
</defs>
</svg>
