<svg version="1.1" xmlns="http://www.w3.org/2000/svg" width="32" height="32" viewBox="0 0 32 32" fill="#444">
<path d="M1.145 7.353c-0.296 0.056-0.508 0.319-0.503 0.62v2.289c-0.093 0.284 0.029 0.593 0.29 0.737 0.012 0.007 0.025 0.014 0.038 0.020 0.006 0.007 0.013 0.013 0.019 0.020 0.013 0.001 0.026 0.001 0.038 0 0.006 0.007 0.013 0.013 0.020 0.020 0.013 0.001 0.026 0.001 0.038 0 0.006 0 0.013 0 0.020 0 0.038 0.010 0.077 0.017 0.116 0.020 0.006 0 0.013 0 0.020 0s0.013 0 0.020 0c0.737 0 1.238 0.502 1.238 1.242v4.345c0 3.092 2.088 5.725 4.916 6.556-0.133 0.545-0.585 0.892-1.2 0.892-0.342-0.005-0.623 0.269-0.628 0.612s0.269 0.625 0.611 0.63c0.006 0 0.011 0 0.018 0 1.17 0 2.139-0.809 2.4-1.901 0.228 0.023 0.463 0.039 0.697 0.039h13.626c0.234 0 0.468-0.015 0.697-0.039 0.261 1.091 1.23 1.901 2.4 1.901 0.342 0.005 0.623-0.269 0.628-0.612s-0.268-0.625-0.61-0.63c-0.006 0-0.012 0-0.017 0-0.615 0-1.067-0.347-1.2-0.892 2.829-0.831 4.916-3.464 4.916-6.556v-4.345c0-0.739 0.502-1.242 1.238-1.242 0.058 0.002 0.117-0.005 0.174-0.020 0.087-0.027 0.166-0.074 0.233-0.136 0.013-0.006 0.026-0.012 0.038-0.020 0-0.007 0-0.013 0-0.020 0.028-0.024 0.054-0.050 0.078-0.078 0-0.007 0-0.013 0-0.020 0.046-0.065 0.078-0.136 0.097-0.213 0.002-0.026 0.002-0.052 0-0.078 0-0.013 0-0.026 0-0.039v-0.078c0.001-0.020 0.001-0.039 0-0.058v-2.347c0-0.343-0.277-0.62-0.619-0.62h-29.73c-0.020-0.001-0.038-0.001-0.058 0-0.019 0-0.038 0-0.058 0zM1.881 8.595h28.491v1.242h-28.491v-1.242zM3.39 11.077h25.471c-0.212 0.366-0.349 0.788-0.349 1.242v4.345c0 3.075-2.506 5.586-5.575 5.586h-13.626c-3.069 0-5.574-2.511-5.574-5.586v-4.345c0.001-0.453-0.136-0.876-0.348-1.242z"></path>
</svg>
