<svg version="1.1" xmlns="http://www.w3.org/2000/svg" width="32" height="32" viewBox="0 0 32 32" fill="#444">
<path d="M19.102 0.5c-2.047 0-3.72 1.673-3.72 3.72s1.672 3.72 3.72 3.72 3.72-1.673 3.72-3.72-1.672-3.72-3.72-3.72zM19.102 1.74c1.377 0 2.479 1.103 2.479 2.48s-1.103 2.48-2.48 2.48-2.48-1.103-2.48-2.48 1.102-2.48 2.48-2.48zM23.809 7.301c-0.416 0.006-0.839 0.080-1.24 0.252v0.019l-2.421 1.104c-0.709 0.316-1.169 0.867-1.511 1.415v0.020l-5.734 9.552c-1.095 0.646-1.86 1.79-1.86 3.158v2.209l-2.131 2.131h-6.179c-1.092 0-2.139 0.775-2.228 1.938-0.084 1.255 0.881 2.402 2.17 2.402h7.865c0.476 0 0.96-0.204 1.317-0.562l3.797-3.778h8.407v4.34h7.439v-1.24h-6.199v-9.92h6.199v-1.375l-0.058-0.136-4.649-9.649c-0.002-0.005 0.002-0.014 0-0.020h-0.020c-0.529-1.204-1.723-1.881-2.964-1.861zM23.848 8.521c0.256-0.005 0.5 0.048 0.736 0.136 0.471 0.175 0.875 0.518 1.085 1.008v0.039l4.514 9.397h-7.458l-1.821-3.972-0.485-1.085-0.601 1.027-2.421 4.030h-2.634c-0.034 0-0.063 0.018-0.097 0.020l5.018-8.37c0.006-0.009 0.014-0.011 0.020-0.020 0.273-0.431 0.552-0.753 0.949-0.93h0.020l2.402-1.104c0.25-0.107 0.519-0.169 0.775-0.175zM20.265 16.698l1.085 2.402h-2.518l1.433-2.402zM6.704 19.1c-2.047 0-3.72 1.673-3.72 3.72s1.673 3.72 3.72 3.72 3.72-1.673 3.72-3.72-1.672-3.72-3.72-3.72zM6.704 20.34c1.377 0 2.479 1.103 2.479 2.48s-1.103 2.48-2.479 2.48-2.479-1.103-2.479-2.48 1.103-2.48 2.479-2.48zM14.762 20.34h9.299v5.58h-8.931l-0.194 0.174-3.952 3.972c-0.139 0.139-0.301 0.194-0.445 0.194h-7.865c-0.571 0-0.97-0.46-0.93-1.066 0.034-0.45 0.468-0.794 0.988-0.794h6.703l0.194-0.174 2.479-2.48 0.175-0.194v-2.732c0-1.411 1.069-2.48 2.479-2.48z"></path>
</svg>
