<svg version="1.1" xmlns="http://www.w3.org/2000/svg" width="32" height="32" viewBox="0 0 32 32" fill="#444">
<path d="M16 5.15c-5.95 0-11.35 2.5-15.25 6.45l1.65 1.65c3.45-3.5 8.25-5.75 13.6-5.75s10.1 2.2 13.6 5.75l1.65-1.65c-3.9-3.95-9.3-6.45-15.25-6.45zM16 11.1c-4.35 0-8.25 1.8-11.050 4.7l1.65 1.65c2.4-2.45 5.7-4 9.35-4s7 1.55 9.35 4l1.65-1.65c-2.7-2.9-6.6-4.7-10.95-4.7zM16 17.050c-2.7 0-5.1 1.15-6.85 2.95l1.65 1.65c1.3-1.35 3.15-2.25 5.15-2.25s3.85 0.85 5.15 2.25l1.65-1.65c-1.65-1.8-4.050-2.95-6.75-2.95zM16 23c-1.050 0-2 0.45-2.65 1.2l2.65 2.65 2.65-2.65c-0.65-0.75-1.6-1.2-2.65-1.2z"></path>
</svg>
